<svg width="1222" height="374" viewBox="0 0 1222 374" fill="none" xmlns="http://www.w3.org/2000/svg">
<path d="M17.5 77H217.5V117H122.5H83.5H48.5L32.5 97L17.5 77Z" fill="#52E5E5"/>
<path d="M17.5 207H217.5V167H122.5H83.5H48.5L32.5 187L17.5 207Z" fill="#F67A00"/>
<path d="M17.5 297H217.5V257H122.5H83.5H48.5L32.5 277L17.5 297Z" fill="#CBCBCB"/>
<path d="M397.5 77H217.5V117H397.5V77Z" fill="#52E5E5"/>
<path d="M269.5 117V297H309.5V117H269.5Z" fill="#52E5E5"/>
<g filter="url(#filter0_d_164_492)">
<path d="M505.937 193.44V207H459.857V123.36H503.537V136.44H474.857V156H497.657V168.72H474.857V193.44H505.937ZM568.32 193.8V207H528.12V123.36H543.36V193.8H568.32ZM634.477 193.44V207H588.397V123.36H632.077V136.44H603.397V156H626.197V168.72H603.397V193.44H634.477ZM717.38 162.12C717.86 167.08 718.1 170.96 718.1 173.76C718.1 184.4 715.78 192.96 711.14 199.44C706.5 205.92 698.14 209.16 686.06 209.16C679.34 209.16 673.32 207.38 668 203.82C662.72 200.26 658.56 195.12 655.52 188.4C652.52 181.64 651.02 173.64 651.02 164.4C651.02 156.2 652.6 148.88 655.76 142.44C658.92 136 663.3 130.98 668.9 127.38C674.54 123.74 680.94 121.92 688.1 121.92C692.98 121.92 697.02 122.3 700.22 123.06C703.46 123.82 705.96 124.72 707.72 125.76C709.48 126.8 711.06 128 712.46 129.36L705.86 142.68C702.54 138.28 696.7 136.08 688.34 136.08C684.34 136.08 680.72 137.26 677.48 139.62C674.24 141.98 671.7 145.28 669.86 149.52C668.02 153.76 667.1 158.6 667.1 164.04C667.1 170.6 667.88 176.28 669.44 181.08C671.04 185.84 673.28 189.48 676.16 192C679.08 194.48 682.46 195.72 686.3 195.72C692.34 195.72 696.68 194.3 699.32 191.46C702 188.62 703.34 184.32 703.34 178.56C703.34 177.92 703.3 176.84 703.22 175.32H686.06V162.12H717.38ZM778.329 194.88H748.449L744.009 207H727.209L762.609 121.92H763.809L799.329 207H783.009L778.329 194.88ZM773.889 183.24L765.129 160.44L763.089 153.72L761.169 160.44L752.769 183.24H773.889ZM873.775 123.36V208.68H872.575L832.495 162.96L828.775 158.16L829.375 169.8V207H814.615V121.92H815.935L855.415 168L859.615 173.46L859.015 162V123.36H873.775ZM947.351 136.92H928.031V207H912.551V136.92H893.231V123.36H947.351V136.92Z" fill="#F67A00"/>
<path d="M1043.08 136.92H1023.76V207H1008.28V136.92H988.959V123.36H1043.08V136.92ZM1108.28 193.44V207H1062.2V123.36H1105.88V136.44H1077.2V156H1100V168.72H1077.2V193.44H1108.28ZM1172.7 207L1145.7 166.86V207H1130.46V123.36H1145.7V165L1172.34 123.36H1189.98L1161.48 164.88L1191.9 207H1172.7Z" fill="#52E5E5"/>
</g>
<path d="M474.489 260.32C476.265 260.32 477.817 260.664 479.145 261.352C480.489 262.024 481.521 263 482.241 264.28C482.977 265.544 483.345 267.024 483.345 268.72C483.345 270.416 482.977 271.888 482.241 273.136C481.521 274.384 480.489 275.344 479.145 276.016C477.817 276.672 476.265 277 474.489 277H469.041V260.32H474.489ZM474.489 274.768C476.441 274.768 477.937 274.24 478.977 273.184C480.017 272.128 480.537 270.64 480.537 268.72C480.537 266.784 480.017 265.272 478.977 264.184C477.937 263.096 476.441 262.552 474.489 262.552H471.777V274.768H474.489ZM495.033 262.528V267.424H500.793V269.656H495.033V274.768H501.513V277H492.297V260.296H501.513V262.528H495.033ZM513.859 274.792H519.499V277H511.123V260.32H513.859V274.792ZM530.763 260.32V277H528.027V260.32H530.763ZM554.971 260.32L548.707 277H545.539L539.251 260.32H542.179L547.123 274.192L552.091 260.32H554.971ZM566.235 262.528V267.424H571.995V269.656H566.235V274.768H572.715V277H563.499V260.296H572.715V262.528H566.235ZM590.989 277L587.149 270.328H585.061V277H582.325V260.32H588.085C589.365 260.32 590.445 260.544 591.325 260.992C592.221 261.44 592.885 262.04 593.317 262.792C593.765 263.544 593.989 264.384 593.989 265.312C593.989 266.4 593.669 267.392 593.029 268.288C592.405 269.168 591.437 269.768 590.125 270.088L594.253 277H590.989ZM585.061 268.144H588.085C589.109 268.144 589.877 267.888 590.389 267.376C590.917 266.864 591.181 266.176 591.181 265.312C591.181 264.448 590.925 263.776 590.413 263.296C589.901 262.8 589.125 262.552 588.085 262.552H585.061V268.144ZM606.465 260.32V277H603.729V260.32H606.465ZM630.001 277H627.265L619.033 264.544V277H616.297V260.296H619.033L627.265 272.728V260.296H630.001V277ZM651.906 265.12C651.474 264.288 650.874 263.664 650.106 263.248C649.338 262.816 648.45 262.6 647.442 262.6C646.338 262.6 645.354 262.848 644.49 263.344C643.626 263.84 642.946 264.544 642.45 265.456C641.97 266.368 641.73 267.424 641.73 268.624C641.73 269.824 641.97 270.888 642.45 271.816C642.946 272.728 643.626 273.432 644.49 273.928C645.354 274.424 646.338 274.672 647.442 274.672C648.93 274.672 650.138 274.256 651.066 273.424C651.994 272.592 652.562 271.464 652.77 270.04H646.506V267.856H655.698V269.992C655.522 271.288 655.058 272.48 654.306 273.568C653.57 274.656 652.602 275.528 651.402 276.184C650.218 276.824 648.898 277.144 647.442 277.144C645.874 277.144 644.442 276.784 643.146 276.064C641.85 275.328 640.818 274.312 640.05 273.016C639.298 271.72 638.922 270.256 638.922 268.624C638.922 266.992 639.298 265.528 640.05 264.232C640.818 262.936 641.85 261.928 643.146 261.208C644.458 260.472 645.89 260.104 647.442 260.104C649.218 260.104 650.794 260.544 652.17 261.424C653.562 262.288 654.57 263.52 655.194 265.12H651.906ZM687.887 260.32V262.552H683.447V277H680.711V262.552H676.247V260.32H687.887ZM699.634 262.528V267.424H705.394V269.656H699.634V274.768H706.114V277H696.898V260.296H706.114V262.528H699.634ZM714.812 268.624C714.812 266.992 715.188 265.528 715.94 264.232C716.708 262.936 717.74 261.928 719.036 261.208C720.348 260.472 721.78 260.104 723.332 260.104C725.108 260.104 726.684 260.544 728.06 261.424C729.452 262.288 730.46 263.52 731.084 265.12H727.796C727.364 264.24 726.764 263.584 725.996 263.152C725.228 262.72 724.34 262.504 723.332 262.504C722.228 262.504 721.244 262.752 720.38 263.248C719.516 263.744 718.836 264.456 718.34 265.384C717.86 266.312 717.62 267.392 717.62 268.624C717.62 269.856 717.86 270.936 718.34 271.864C718.836 272.792 719.516 273.512 720.38 274.024C721.244 274.52 722.228 274.768 723.332 274.768C724.34 274.768 725.228 274.552 725.996 274.12C726.764 273.688 727.364 273.032 727.796 272.152H731.084C730.46 273.752 729.452 274.984 728.06 275.848C726.684 276.712 725.108 277.144 723.332 277.144C721.764 277.144 720.332 276.784 719.036 276.064C717.74 275.328 716.708 274.312 715.94 273.016C715.188 271.72 714.812 270.256 714.812 268.624ZM753.846 260.32V277H751.11V269.704H743.262V277H740.526V260.32H743.262V267.472H751.11V260.32H753.846ZM777.392 277H774.656L766.424 264.544V277H763.688V260.296H766.424L774.656 272.728V260.296H777.392V277ZM794.833 277.168C793.281 277.168 791.849 276.808 790.537 276.088C789.241 275.352 788.209 274.336 787.441 273.04C786.689 271.728 786.313 270.256 786.313 268.624C786.313 266.992 786.689 265.528 787.441 264.232C788.209 262.936 789.241 261.928 790.537 261.208C791.849 260.472 793.281 260.104 794.833 260.104C796.401 260.104 797.833 260.472 799.129 261.208C800.441 261.928 801.473 262.936 802.225 264.232C802.977 265.528 803.353 266.992 803.353 268.624C803.353 270.256 802.977 271.728 802.225 273.04C801.473 274.336 800.441 275.352 799.129 276.088C797.833 276.808 796.401 277.168 794.833 277.168ZM794.833 274.792C795.937 274.792 796.921 274.544 797.785 274.048C798.649 273.536 799.321 272.816 799.801 271.888C800.297 270.944 800.545 269.856 800.545 268.624C800.545 267.392 800.297 266.312 799.801 265.384C799.321 264.456 798.649 263.744 797.785 263.248C796.921 262.752 795.937 262.504 794.833 262.504C793.729 262.504 792.745 262.752 791.881 263.248C791.017 263.744 790.337 264.456 789.841 265.384C789.361 266.312 789.121 267.392 789.121 268.624C789.121 269.856 789.361 270.944 789.841 271.888C790.337 272.816 791.017 273.536 791.881 274.048C792.745 274.544 793.729 274.792 794.833 274.792ZM815.021 274.792H820.661V277H812.285V260.32H815.021V274.792ZM836.798 277.168C835.246 277.168 833.814 276.808 832.502 276.088C831.206 275.352 830.174 274.336 829.406 273.04C828.654 271.728 828.278 270.256 828.278 268.624C828.278 266.992 828.654 265.528 829.406 264.232C830.174 262.936 831.206 261.928 832.502 261.208C833.814 260.472 835.246 260.104 836.798 260.104C838.366 260.104 839.798 260.472 841.094 261.208C842.406 261.928 843.438 262.936 844.19 264.232C844.942 265.528 845.318 266.992 845.318 268.624C845.318 270.256 844.942 271.728 844.19 273.04C843.438 274.336 842.406 275.352 841.094 276.088C839.798 276.808 838.366 277.168 836.798 277.168ZM836.798 274.792C837.902 274.792 838.886 274.544 839.75 274.048C840.614 273.536 841.286 272.816 841.766 271.888C842.262 270.944 842.51 269.856 842.51 268.624C842.51 267.392 842.262 266.312 841.766 265.384C841.286 264.456 840.614 263.744 839.75 263.248C838.886 262.752 837.902 262.504 836.798 262.504C835.694 262.504 834.71 262.752 833.846 263.248C832.982 263.744 832.302 264.456 831.806 265.384C831.326 266.312 831.086 267.392 831.086 268.624C831.086 269.856 831.326 270.944 831.806 271.888C832.302 272.816 832.982 273.536 833.846 274.048C834.71 274.544 835.694 274.792 836.798 274.792ZM866.322 265.12C865.89 264.288 865.29 263.664 864.522 263.248C863.754 262.816 862.866 262.6 861.858 262.6C860.754 262.6 859.77 262.848 858.906 263.344C858.042 263.84 857.362 264.544 856.866 265.456C856.386 266.368 856.146 267.424 856.146 268.624C856.146 269.824 856.386 270.888 856.866 271.816C857.362 272.728 858.042 273.432 858.906 273.928C859.77 274.424 860.754 274.672 861.858 274.672C863.346 274.672 864.554 274.256 865.482 273.424C866.41 272.592 866.978 271.464 867.186 270.04H860.922V267.856H870.114V269.992C869.938 271.288 869.474 272.48 868.722 273.568C867.986 274.656 867.018 275.528 865.818 276.184C864.634 276.824 863.314 277.144 861.858 277.144C860.29 277.144 858.858 276.784 857.562 276.064C856.266 275.328 855.234 274.312 854.466 273.016C853.714 271.72 853.338 270.256 853.338 268.624C853.338 266.992 853.714 265.528 854.466 264.232C855.234 262.936 856.266 261.928 857.562 261.208C858.874 260.472 860.306 260.104 861.858 260.104C863.634 260.104 865.21 260.544 866.586 261.424C867.978 262.288 868.986 263.52 869.61 265.12H866.322ZM881.788 260.32V277H879.052V260.32H881.788ZM894.356 262.528V267.424H900.116V269.656H894.356V274.768H900.836V277H891.62V260.296H900.836V262.528H894.356ZM915.942 277.168C914.822 277.168 913.814 276.976 912.918 276.592C912.022 276.192 911.318 275.632 910.806 274.912C910.294 274.192 910.038 273.352 910.038 272.392H912.966C913.03 273.112 913.31 273.704 913.806 274.168C914.318 274.632 915.03 274.864 915.942 274.864C916.886 274.864 917.622 274.64 918.15 274.192C918.678 273.728 918.942 273.136 918.942 272.416C918.942 271.856 918.774 271.4 918.438 271.048C918.118 270.696 917.71 270.424 917.214 270.232C916.734 270.04 916.062 269.832 915.198 269.608C914.11 269.32 913.222 269.032 912.534 268.744C911.862 268.44 911.286 267.976 910.806 267.352C910.326 266.728 910.086 265.896 910.086 264.856C910.086 263.896 910.326 263.056 910.806 262.336C911.286 261.616 911.958 261.064 912.822 260.68C913.686 260.296 914.686 260.104 915.822 260.104C917.438 260.104 918.758 260.512 919.782 261.328C920.822 262.128 921.398 263.232 921.51 264.64H918.486C918.438 264.032 918.15 263.512 917.622 263.08C917.094 262.648 916.398 262.432 915.534 262.432C914.75 262.432 914.11 262.632 913.614 263.032C913.118 263.432 912.87 264.008 912.87 264.76C912.87 265.272 913.022 265.696 913.326 266.032C913.646 266.352 914.046 266.608 914.526 266.8C915.006 266.992 915.662 267.2 916.494 267.424C917.598 267.728 918.494 268.032 919.182 268.336C919.886 268.64 920.478 269.112 920.958 269.752C921.454 270.376 921.702 271.216 921.702 272.272C921.702 273.12 921.47 273.92 921.006 274.672C920.558 275.424 919.894 276.032 919.014 276.496C918.15 276.944 917.126 277.168 915.942 277.168ZM965.365 260.32L960.421 277H957.325L953.821 264.376L950.101 277L947.029 277.024L942.301 260.32H945.205L948.661 273.904L952.405 260.32H955.477L958.957 273.832L962.437 260.32H965.365ZM976.598 260.32V277H973.862V260.32H976.598ZM997.206 260.32V262.552H992.766V277H990.03V262.552H985.566V260.32H997.206ZM1019.54 260.32V277H1016.8V269.704H1008.95V277H1006.22V260.32H1008.95V267.472H1016.8V260.32H1019.54ZM1054.76 280.024L1051.84 276.856C1051.12 277.064 1050.32 277.168 1049.46 277.168C1047.91 277.168 1046.48 276.808 1045.16 276.088C1043.87 275.352 1042.84 274.336 1042.07 273.04C1041.32 271.728 1040.94 270.256 1040.94 268.624C1040.94 266.992 1041.32 265.528 1042.07 264.232C1042.84 262.936 1043.87 261.928 1045.16 261.208C1046.48 260.472 1047.91 260.104 1049.46 260.104C1051.03 260.104 1052.46 260.472 1053.76 261.208C1055.07 261.928 1056.1 262.936 1056.85 264.232C1057.6 265.528 1057.98 266.992 1057.98 268.624C1057.98 270.16 1057.64 271.552 1056.97 272.8C1056.32 274.032 1055.4 275.024 1054.24 275.776L1058.24 280.024H1054.76ZM1043.75 268.624C1043.75 269.856 1043.99 270.944 1044.47 271.888C1044.96 272.816 1045.64 273.536 1046.51 274.048C1047.37 274.544 1048.36 274.792 1049.46 274.792C1050.56 274.792 1051.55 274.544 1052.41 274.048C1053.28 273.536 1053.95 272.816 1054.43 271.888C1054.92 270.944 1055.17 269.856 1055.17 268.624C1055.17 267.392 1054.92 266.312 1054.43 265.384C1053.95 264.456 1053.28 263.744 1052.41 263.248C1051.55 262.752 1050.56 262.504 1049.46 262.504C1048.36 262.504 1047.37 262.752 1046.51 263.248C1045.64 263.744 1044.96 264.456 1044.47 265.384C1043.99 266.312 1043.75 267.392 1043.75 268.624ZM1069.7 260.32V270.952C1069.7 272.216 1070.02 273.168 1070.68 273.808C1071.35 274.448 1072.28 274.768 1073.46 274.768C1074.66 274.768 1075.59 274.448 1076.25 273.808C1076.92 273.168 1077.26 272.216 1077.26 270.952V260.32H1079.99V270.904C1079.99 272.264 1079.7 273.416 1079.1 274.36C1078.51 275.304 1077.72 276.008 1076.73 276.472C1075.74 276.936 1074.64 277.168 1073.44 277.168C1072.24 277.168 1071.14 276.936 1070.15 276.472C1069.18 276.008 1068.4 275.304 1067.82 274.36C1067.25 273.416 1066.96 272.264 1066.96 270.904V260.32H1069.7ZM1099.85 273.592H1092.87L1091.67 277H1088.81L1094.79 260.296H1097.95L1103.93 277H1101.05L1099.85 273.592ZM1099.08 271.36L1096.37 263.608L1093.63 271.36H1099.08ZM1115.5 274.792H1121.14V277H1112.77V260.32H1115.5V274.792ZM1132.41 260.32V277H1129.67V260.32H1132.41ZM1153.02 260.32V262.552H1148.58V277H1145.84V262.552H1141.38V260.32H1153.02ZM1174.39 260.32L1168.87 270.952V277H1166.13V270.952L1160.59 260.32H1163.64L1167.5 268.504L1171.36 260.32H1174.39Z" fill="#CBCBCB"/>
<defs>
<filter id="filter0_d_164_492" x="457.857" y="121.92" width="736.043" height="91.24" filterUnits="userSpaceOnUse" color-interpolation-filters="sRGB">
<feFlood flood-opacity="0" result="BackgroundImageFix"/>
<feColorMatrix in="SourceAlpha" type="matrix" values="0 0 0 0 0 0 0 0 0 0 0 0 0 0 0 0 0 0 127 0" result="hardAlpha"/>
<feOffset dy="2"/>
<feGaussianBlur stdDeviation="1"/>
<feComposite in2="hardAlpha" operator="out"/>
<feColorMatrix type="matrix" values="0 0 0 0 0 0 0 0 0 0 0 0 0 0 0 0 0 0 0.25 0"/>
<feBlend mode="normal" in2="BackgroundImageFix" result="effect1_dropShadow_164_492"/>
<feBlend mode="normal" in="SourceGraphic" in2="effect1_dropShadow_164_492" result="shape"/>
</filter>
</defs>
</svg>
