<svg width="340" height="111" viewBox="0 0 340 111" fill="none" xmlns="http://www.w3.org/2000/svg">
<path d="M4.86906 22.853H60.5155V34.7246H34.0835H23.2324H13.4943L9.04255 28.7888L4.86906 22.853Z" fill="#52E5E5"/>
<path d="M4.86906 61.4358H60.5155V49.5641H34.0835H23.2324H13.4943L9.04255 55.5L4.86906 61.4358Z" fill="#F67A00"/>
<path d="M4.86906 88.147H60.5155V76.2754H34.0835H23.2324H13.4943L9.04255 82.2112L4.86906 88.147Z" fill="#CBCBCB"/>
<path d="M110.597 22.853H60.5155V34.7246H110.597V22.853Z" fill="#52E5E5"/>
<path d="M74.9836 34.7246V88.1471H86.1129V34.7246H74.9836Z" fill="#52E5E5"/>
<g filter="url(#filter0_d_193_896)">
<path d="M140.768 57.4113V61.4358H127.947V36.6122H140.1V40.4942H132.121V46.2995H138.464V50.0747H132.121V57.4113H140.768ZM158.125 57.5182V61.4358H146.94V36.6122H151.18V57.5182H158.125ZM176.532 57.4113V61.4358H163.711V36.6122H175.864V40.4942H167.885V46.2995H174.228V50.0747H167.885V57.4113H176.532ZM199.598 48.1158C199.732 49.5879 199.799 50.7395 199.799 51.5705C199.799 54.7283 199.153 57.2689 197.862 59.1921C196.571 61.1153 194.245 62.0769 190.884 62.0769C189.014 62.0769 187.339 61.5486 185.859 60.492C184.39 59.4355 183.233 57.9099 182.387 55.9155C181.552 53.9092 181.135 51.5349 181.135 48.7925C181.135 46.3588 181.574 44.1863 182.454 42.275C183.333 40.3636 184.552 38.8737 186.11 37.8053C187.679 36.725 189.46 36.1848 191.452 36.1848C192.809 36.1848 193.934 36.2976 194.824 36.5232C195.725 36.7487 196.421 37.0158 196.911 37.3245C197.4 37.6332 197.84 37.9893 198.229 38.3929L196.393 42.3462C195.469 41.0403 193.845 40.3874 191.519 40.3874C190.406 40.3874 189.398 40.7376 188.497 41.438C187.595 42.1385 186.889 43.1179 186.377 44.3763C185.865 45.6347 185.609 47.0711 185.609 48.6857C185.609 50.6326 185.826 52.3184 186.26 53.743C186.705 55.1557 187.328 56.236 188.13 56.984C188.942 57.72 189.882 58.088 190.951 58.088C192.631 58.088 193.839 57.6666 194.573 56.8237C195.319 55.9808 195.692 54.7046 195.692 52.9951C195.692 52.8051 195.681 52.4846 195.659 52.0335H190.884V48.1158H199.598ZM216.556 57.8387H208.243L207.007 61.4358H202.333L212.183 36.1848H212.516L222.399 61.4358H217.858L216.556 57.8387ZM215.321 54.3841L212.884 47.6172L212.316 45.6228L211.782 47.6172L209.445 54.3841H215.321ZM243.113 36.6122V61.9344H242.779L231.627 48.3651L230.592 46.9405L230.759 50.3952V61.4358H226.652V36.1848H227.02L238.004 49.861L239.173 51.4814L239.006 48.0802V36.6122H243.113ZM263.584 40.6367H258.208V61.4358H253.901V40.6367H248.526V36.6122H263.584V40.6367Z" fill="#F67A00"/>
<path d="M290.219 40.6367H284.843V61.4358H280.536V40.6367H275.16V36.6122H290.219V40.6367ZM308.359 57.4113V61.4358H295.538V36.6122H307.692V40.4942H299.712V46.2995H306.056V50.0746H299.712V57.4113H308.359ZM326.283 61.4358L318.771 49.5226V61.4358H314.531V36.6122H318.771V48.9706L326.183 36.6122H331.091L323.161 48.935L331.625 61.4358H326.283Z" fill="#52E5E5"/>
</g>
<path d="M132.018 77.2608C132.512 77.2608 132.944 77.3629 133.314 77.567C133.688 77.7665 133.975 78.0562 134.175 78.4361C134.38 78.8112 134.482 79.2505 134.482 79.7538C134.482 80.2572 134.38 80.694 134.175 81.0644C133.975 81.4348 133.688 81.7198 133.314 81.9192C132.944 82.1139 132.512 82.2112 132.018 82.2112H130.502V77.2608H132.018ZM132.018 81.5488C132.561 81.5488 132.978 81.3921 133.267 81.0787C133.556 80.7653 133.701 80.3236 133.701 79.7538C133.701 79.1792 133.556 78.7305 133.267 78.4076C132.978 78.0847 132.561 77.9232 132.018 77.9232H131.264V81.5488H132.018ZM137.734 77.9161V79.3692H139.337V80.0316H137.734V81.5488H139.537V82.2112H136.973V77.2536H139.537V77.9161H137.734ZM142.972 81.5559H144.541V82.2112H142.211V77.2608H142.972V81.5559ZM147.675 77.2608V82.2112H146.914V77.2608H147.675ZM154.411 77.2608L152.668 82.2112H151.787L150.037 77.2608H150.852L152.227 81.3778L153.61 77.2608H154.411ZM157.545 77.9161V79.3692H159.148V80.0316H157.545V81.5488H159.348V82.2112H156.784V77.2536H159.348V77.9161H157.545ZM164.432 82.2112L163.364 80.2311H162.783V82.2112H162.022V77.2608H163.624C163.98 77.2608 164.281 77.3272 164.526 77.4602C164.775 77.5932 164.96 77.7712 165.08 77.9944C165.205 78.2176 165.267 78.4669 165.267 78.7423C165.267 79.0653 165.178 79.3597 165 79.6256C164.826 79.8868 164.557 80.0649 164.192 80.1598L165.34 82.2112H164.432ZM162.783 79.5829H163.624C163.909 79.5829 164.123 79.5069 164.265 79.3549C164.412 79.203 164.486 78.9988 164.486 78.7423C164.486 78.4859 164.414 78.2865 164.272 78.144C164.13 77.9968 163.914 77.9232 163.624 77.9232H162.783V79.5829ZM168.738 77.2608V82.2112H167.977V77.2608H168.738ZM175.287 82.2112H174.525L172.235 78.5144V82.2112H171.474V77.2536H172.235L174.525 80.9433V77.2536H175.287V82.2112ZM181.381 78.6854C181.261 78.4384 181.094 78.2532 180.881 78.1298C180.667 78.0015 180.42 77.9374 180.139 77.9374C179.832 77.9374 179.558 78.011 179.318 78.1583C179.078 78.3055 178.888 78.5144 178.75 78.7851C178.617 79.0558 178.55 79.3692 178.55 79.7253C178.55 80.0815 178.617 80.3973 178.75 80.6727C178.888 80.9434 179.078 81.1523 179.318 81.2995C179.558 81.4467 179.832 81.5203 180.139 81.5203C180.553 81.5203 180.889 81.3968 181.148 81.1499C181.406 80.903 181.564 80.5682 181.622 80.1456H179.879V79.4974H182.436V80.1313C182.387 80.516 182.258 80.8697 182.049 81.1927C181.844 81.5156 181.575 81.7744 181.241 81.9691C180.912 82.159 180.544 82.254 180.139 82.254C179.703 82.254 179.305 82.1471 178.944 81.9334C178.583 81.715 178.296 81.4135 178.083 81.0288C177.873 80.6442 177.769 80.2097 177.769 79.7253C177.769 79.241 177.873 78.8064 178.083 78.4218C178.296 78.0372 178.583 77.738 178.944 77.5243C179.309 77.3059 179.708 77.1967 180.139 77.1967C180.633 77.1967 181.072 77.3272 181.455 77.5884C181.842 77.8448 182.123 78.2105 182.296 78.6854H181.381ZM191.392 77.2608V77.9232H190.157V82.2112H189.396V77.9232H188.154V77.2608H191.392ZM194.661 77.9161V79.3692H196.263V80.0316H194.661V81.5488H196.464V82.2112H193.9V77.2536H196.464V77.9161H194.661ZM198.884 79.7253C198.884 79.241 198.988 78.8064 199.198 78.4218C199.411 78.0372 199.699 77.738 200.059 77.5243C200.424 77.3059 200.823 77.1967 201.254 77.1967C201.749 77.1967 202.187 77.3272 202.57 77.5884C202.957 77.8448 203.238 78.2105 203.411 78.6854H202.496C202.376 78.4242 202.209 78.2295 201.996 78.1013C201.782 77.9731 201.535 77.909 201.254 77.909C200.947 77.909 200.673 77.9826 200.433 78.1298C200.193 78.277 200.003 78.4883 199.865 78.7637C199.732 79.0391 199.665 79.3597 199.665 79.7253C199.665 80.091 199.732 80.4115 199.865 80.6869C200.003 80.9623 200.193 81.176 200.433 81.328C200.673 81.4752 200.947 81.5488 201.254 81.5488C201.535 81.5488 201.782 81.4847 201.996 81.3565C202.209 81.2283 202.376 81.0336 202.496 80.7724H203.411C203.238 81.2473 202.957 81.6129 202.57 81.8693C202.187 82.1258 201.749 82.254 201.254 82.254C200.818 82.254 200.42 82.1471 200.059 81.9334C199.699 81.715 199.411 81.4135 199.198 81.0288C198.988 80.6442 198.884 80.2097 198.884 79.7253ZM209.744 77.2608V82.2112H208.983V80.0459H206.8V82.2112H206.038V77.2608H206.8V79.3834H208.983V77.2608H209.744ZM216.296 82.2112H215.534L213.244 78.5144V82.2112H212.483V77.2536H213.244L215.534 80.9433V77.2536H216.296V82.2112ZM221.148 82.2611C220.716 82.2611 220.318 82.1543 219.953 81.9406C219.592 81.7221 219.305 81.4206 219.092 81.036C218.882 80.6466 218.778 80.2097 218.778 79.7253C218.778 79.241 218.882 78.8064 219.092 78.4218C219.305 78.0372 219.592 77.738 219.953 77.5243C220.318 77.3059 220.716 77.1967 221.148 77.1967C221.585 77.1967 221.983 77.3059 222.344 77.5243C222.709 77.738 222.996 78.0372 223.205 78.4218C223.414 78.8064 223.519 79.241 223.519 79.7253C223.519 80.2097 223.414 80.6466 223.205 81.036C222.996 81.4206 222.709 81.7221 222.344 81.9406C221.983 82.1543 221.585 82.2611 221.148 82.2611ZM221.148 81.5559C221.455 81.5559 221.729 81.4823 221.97 81.3351C222.21 81.1832 222.397 80.9695 222.531 80.694C222.669 80.4139 222.738 80.091 222.738 79.7253C222.738 79.3597 222.669 79.0391 222.531 78.7637C222.397 78.4883 222.21 78.277 221.97 78.1298C221.729 77.9826 221.455 77.909 221.148 77.909C220.841 77.909 220.567 77.9826 220.327 78.1298C220.087 78.277 219.897 78.4883 219.759 78.7637C219.626 79.0391 219.559 79.3597 219.559 79.7253C219.559 80.091 219.626 80.4139 219.759 80.694C219.897 80.9695 220.087 81.1832 220.327 81.3351C220.567 81.4823 220.841 81.5559 221.148 81.5559ZM226.765 81.5559H228.334V82.2112H226.004V77.2608H226.765V81.5559ZM232.824 82.2611C232.392 82.2611 231.994 82.1543 231.629 81.9406C231.268 81.7221 230.981 81.4206 230.768 81.036C230.558 80.6466 230.454 80.2097 230.454 79.7253C230.454 79.241 230.558 78.8064 230.768 78.4218C230.981 78.0372 231.268 77.738 231.629 77.5243C231.994 77.3059 232.392 77.1967 232.824 77.1967C233.261 77.1967 233.659 77.3059 234.02 77.5243C234.385 77.738 234.672 78.0372 234.881 78.4218C235.09 78.8064 235.195 79.241 235.195 79.7253C235.195 80.2097 235.09 80.6466 234.881 81.036C234.672 81.4206 234.385 81.7221 234.02 81.9406C233.659 82.1543 233.261 82.2611 232.824 82.2611ZM232.824 81.5559C233.131 81.5559 233.405 81.4823 233.646 81.3351C233.886 81.1832 234.073 80.9695 234.207 80.694C234.345 80.4139 234.414 80.091 234.414 79.7253C234.414 79.3597 234.345 79.0391 234.207 78.7637C234.073 78.4883 233.886 78.277 233.646 78.1298C233.405 77.9826 233.131 77.909 232.824 77.909C232.517 77.909 232.243 77.9826 232.003 78.1298C231.763 78.277 231.573 78.4883 231.435 78.7637C231.302 79.0391 231.235 79.3597 231.235 79.7253C231.235 80.091 231.302 80.4139 231.435 80.694C231.573 80.9695 231.763 81.1832 232.003 81.3351C232.243 81.4823 232.517 81.5559 232.824 81.5559ZM241.039 78.6854C240.919 78.4384 240.752 78.2532 240.538 78.1298C240.324 78.0015 240.077 77.9374 239.797 77.9374C239.49 77.9374 239.216 78.011 238.975 78.1583C238.735 78.3055 238.546 78.5144 238.408 78.7851C238.274 79.0558 238.208 79.3692 238.208 79.7253C238.208 80.0815 238.274 80.3973 238.408 80.6727C238.546 80.9434 238.735 81.1523 238.975 81.2995C239.216 81.4467 239.49 81.5203 239.797 81.5203C240.211 81.5203 240.547 81.3968 240.805 81.1499C241.063 80.903 241.221 80.5682 241.279 80.1456H239.536V79.4974H242.094V80.1313C242.045 80.516 241.916 80.8697 241.707 81.1927C241.502 81.5156 241.232 81.7744 240.899 81.9691C240.569 82.159 240.202 82.254 239.797 82.254C239.361 82.254 238.962 82.1471 238.602 81.9334C238.241 81.715 237.954 81.4135 237.74 81.0288C237.531 80.6442 237.426 80.2097 237.426 79.7253C237.426 79.241 237.531 78.8064 237.74 78.4218C237.954 78.0372 238.241 77.738 238.602 77.5243C238.967 77.3059 239.365 77.1967 239.797 77.1967C240.291 77.1967 240.729 77.3272 241.112 77.5884C241.5 77.8448 241.78 78.2105 241.954 78.6854H241.039ZM245.342 77.2608V82.2112H244.581V77.2608H245.342ZM248.839 77.9161V79.3692H250.441V80.0316H248.839V81.5488H250.642V82.2112H248.078V77.2536H250.642V77.9161H248.839ZM254.845 82.2611C254.533 82.2611 254.253 82.2041 254.003 82.0902C253.754 81.9714 253.558 81.8052 253.416 81.5915C253.273 81.3778 253.202 81.1285 253.202 80.8436H254.017C254.035 81.0573 254.112 81.233 254.25 81.3707C254.393 81.5084 254.591 81.5773 254.845 81.5773C255.107 81.5773 255.312 81.5108 255.459 81.3778C255.606 81.2401 255.679 81.0644 255.679 80.8507C255.679 80.6845 255.633 80.5492 255.539 80.4447C255.45 80.3403 255.337 80.2595 255.199 80.2026C255.065 80.1456 254.878 80.0838 254.638 80.0174C254.335 79.9319 254.088 79.8464 253.897 79.7609C253.71 79.6707 253.549 79.533 253.416 79.3478C253.282 79.1626 253.215 78.9157 253.215 78.607C253.215 78.3221 253.282 78.0728 253.416 77.8591C253.549 77.6454 253.736 77.4816 253.977 77.3676C254.217 77.2536 254.495 77.1967 254.811 77.1967C255.261 77.1967 255.628 77.3177 255.913 77.5599C256.203 77.7974 256.363 78.125 256.394 78.5429H255.553C255.539 78.3625 255.459 78.2081 255.312 78.0799C255.165 77.9517 254.972 77.8876 254.731 77.8876C254.513 77.8876 254.335 77.9469 254.197 78.0657C254.059 78.1844 253.99 78.3553 253.99 78.5785C253.99 78.7305 254.032 78.8563 254.117 78.956C254.206 79.051 254.317 79.127 254.451 79.184C254.584 79.2409 254.767 79.3027 254.998 79.3692C255.305 79.4594 255.555 79.5496 255.746 79.6398C255.942 79.7301 256.107 79.8702 256.24 80.0601C256.378 80.2453 256.447 80.4946 256.447 80.808C256.447 81.0597 256.383 81.2971 256.254 81.5203C256.129 81.7435 255.944 81.9239 255.699 82.0617C255.459 82.1946 255.174 82.2611 254.845 82.2611ZM268.596 77.2608L267.22 82.2112H266.359L265.384 78.4645L264.349 82.2112L263.494 82.2184L262.179 77.2608H262.987L263.948 81.2924L264.99 77.2608H265.845L266.813 81.271L267.781 77.2608H268.596ZM271.721 77.2608V82.2112H270.96V77.2608H271.721ZM277.455 77.2608V77.9232H276.22V82.2112H275.458V77.9232H274.216V77.2608H277.455ZM283.669 77.2608V82.2112H282.907V80.0459H280.723V82.2112H279.963V77.2608H280.723V79.3834H282.907V77.2608H283.669ZM293.468 83.1087L292.656 82.1685C292.456 82.2302 292.233 82.2611 291.994 82.2611C291.562 82.2611 291.165 82.1543 290.797 81.9406C290.438 81.7221 290.152 81.4206 289.938 81.036C289.729 80.6466 289.623 80.2097 289.623 79.7253C289.623 79.241 289.729 78.8064 289.938 78.4218C290.152 78.0372 290.438 77.738 290.797 77.5243C291.165 77.3059 291.562 77.1967 291.994 77.1967C292.431 77.1967 292.828 77.3059 293.19 77.5243C293.555 77.738 293.841 78.0372 294.05 78.4218C294.259 78.8064 294.364 79.241 294.364 79.7253C294.364 80.1812 294.27 80.5943 294.083 80.9647C293.902 81.3304 293.646 81.6248 293.324 81.848L294.437 83.1087H293.468ZM290.405 79.7253C290.405 80.091 290.472 80.4139 290.605 80.694C290.742 80.9695 290.931 81.1832 291.173 81.3351C291.412 81.4823 291.688 81.5559 291.994 81.5559C292.3 81.5559 292.575 81.4823 292.815 81.3351C293.057 81.1832 293.243 80.9695 293.377 80.694C293.513 80.4139 293.582 80.091 293.582 79.7253C293.582 79.3597 293.513 79.0391 293.377 78.7637C293.243 78.4883 293.057 78.277 292.815 78.1298C292.575 77.9826 292.3 77.909 291.994 77.909C291.688 77.909 291.412 77.9826 291.173 78.1298C290.931 78.277 290.742 78.4883 290.605 78.7637C290.472 79.0391 290.405 79.3597 290.405 79.7253ZM297.625 77.2608V80.4162C297.625 80.7914 297.714 81.0739 297.898 81.2639C298.084 81.4538 298.343 81.5488 298.671 81.5488C299.005 81.5488 299.264 81.4538 299.448 81.2639C299.634 81.0739 299.729 80.7914 299.729 80.4162V77.2608H300.488V80.402C300.488 80.8056 300.408 81.1475 300.241 81.4277C300.076 81.7079 299.857 81.9168 299.581 82.0545C299.306 82.1922 299 82.2611 298.666 82.2611C298.332 82.2611 298.026 82.1922 297.75 82.0545C297.481 81.9168 297.263 81.7079 297.102 81.4277C296.943 81.1475 296.863 80.8056 296.863 80.402V77.2608H297.625ZM306.014 81.1998H304.072L303.738 82.2112H302.942L304.606 77.2536H305.485L307.149 82.2112H306.348L306.014 81.1998ZM305.8 80.5373L305.046 78.2366L304.283 80.5373H305.8ZM310.368 81.5559H311.937V82.2112H309.609V77.2608H310.368V81.5559ZM315.073 77.2608V82.2112H314.311V77.2608H315.073ZM320.808 77.2608V77.9232H319.572V82.2112H318.81V77.9232H317.569V77.2608H320.808ZM326.753 77.2608L325.217 80.4162V82.2112H324.455V80.4162L322.914 77.2608H323.762L324.836 79.6897L325.91 77.2608H326.753Z" fill="#CBCBCB"/>
<defs>
<filter id="filter0_d_193_896" x="125.947" y="36.1848" width="207.678" height="29.8921" filterUnits="userSpaceOnUse" color-interpolation-filters="sRGB">
<feFlood flood-opacity="0" result="BackgroundImageFix"/>
<feColorMatrix in="SourceAlpha" type="matrix" values="0 0 0 0 0 0 0 0 0 0 0 0 0 0 0 0 0 0 127 0" result="hardAlpha"/>
<feOffset dy="2"/>
<feGaussianBlur stdDeviation="1"/>
<feComposite in2="hardAlpha" operator="out"/>
<feColorMatrix type="matrix" values="0 0 0 0 0 0 0 0 0 0 0 0 0 0 0 0 0 0 0.25 0"/>
<feBlend mode="normal" in2="BackgroundImageFix" result="effect1_dropShadow_193_896"/>
<feBlend mode="normal" in="SourceGraphic" in2="effect1_dropShadow_193_896" result="shape"/>
</filter>
</defs>
</svg>
